/* XPM */
static char *_6194_6e6dd52f433ddab251a219cd156d0fb5c605dbead1b2d189c2c6316734f8f424[] = {
/* columns rows colors chars-per-pixel */
"32 32 188 2 ",
"   c #BB7700",
".  c #BD7A00",
"X  c #C17C00",
"o  c #C38500",
"O  c #C48B00",
"+  c #CC8C00",
"@  c #DF8400",
"#  c #C69300",
"$  c #CB9400",
"%  c #CA9900",
"&  c #CD970A",
"*  c #D99306",
"=  c #D79B00",
"-  c #DB9E00",
";  c #E28300",
":  c #E58D00",
">  c #E98F00",
",  c #E49201",
"<  c #EB9300",
"1  c #E79C01",
"2  c #EC9B01",
"3  c #E4990D",
"4  c #EB9E0A",
"5  c #F19600",
"6  c #F29D00",
"7  c #EA9E13",
"8  c #CBAA00",
"9  c #DCA400",
"0  c #D6A800",
"q  c #DFAD01",
"w  c #CDA016",
"e  c #D9B21F",
"r  c #E4A300",
"t  c #ECA301",
"y  c #E6AB00",
"u  c #ECAB01",
"i  c #E8A20A",
"p  c #ECAC0F",
"a  c #F1A400",
"s  c #F4AC00",
"d  c #F9AB00",
"f  c #E5B601",
"g  c #ECB301",
"h  c #E4B900",
"j  c #ECBC00",
"k  c #E8B70E",
"l  c #ECBA0D",
"z  c #F5B200",
"x  c #FAB500",
"c  c #F4BC01",
"v  c #FBBC00",
"b  c #F2B309",
"n  c #FAB708",
"m  c #E5A617",
"M  c #EBA61A",
"N  c #F1AC11",
"B  c #E6B011",
"V  c #EFB116",
"C  c #EBB617",
"Z  c #F2B617",
"A  c #F0B41B",
"S  c #F4BC1B",
"D  c #C8A124",
"F  c #E5A721",
"G  c #EEAD23",
"H  c #E6A62D",
"J  c #E7AA2F",
"K  c #EDB422",
"L  c #EFBA22",
"P  c #EBB42C",
"I  c #F4BC22",
"U  c #EBAE34",
"Y  c #EFB735",
"T  c #E9B53B",
"R  c #F0BF31",
"E  c #EDC301",
"W  c #ECC805",
"Q  c #F3C300",
"!  c #FCC300",
"~  c #F4CB00",
"^  c #FECC00",
"/  c #F2C10E",
"(  c #FEC60E",
")  c #F5CB0E",
"_  c #F7D604",
"`  c #FED400",
"'  c #FFDC00",
"]  c #FFD30A",
"[  c #EBC312",
"{  c #EDCA18",
"}  c #FACA18",
"|  c #FFD31C",
" . c #FFE300",
".. c #FFEA01",
"X. c #FEE40F",
"o. c #FFEB0A",
"O. c #FEF112",
"+. c #FFF21D",
"@. c #EBCB25",
"#. c #F4C828",
"$. c #F5D821",
"%. c #F1DE2C",
"&. c #EDC030",
"*. c #E9C538",
"=. c #F4C93A",
"-. c #F8D63A",
";. c #FEE02B",
":. c #FDE629",
">. c #FFF328",
",. c #F2E134",
"<. c #FFEC37",
"1. c #FEEB3B",
"2. c #FFF937",
"3. c #FFF63E",
"4. c #CEB34A",
"5. c #E8AD40",
"6. c #E6B344",
"7. c #E5BC50",
"8. c #EFBF56",
"9. c #CFBF62",
"0. c #ECBE68",
"q. c #DBC357",
"w. c #FEDA44",
"e. c #F7DF4F",
"r. c #F4CB57",
"t. c #E7D153",
"y. c #F4D45A",
"u. c #FBE344",
"i. c #FBE24A",
"p. c #FEEA4C",
"a. c #FFF344",
"s. c #FEF54B",
"d. c #FFF94A",
"f. c #FCE558",
"g. c #FEEC5B",
"h. c #FFF351",
"j. c #FDF45C",
"k. c #FDF958",
"l. c #D3C666",
"z. c #CCC571",
"x. c #DFD57C",
"c. c #EDC86D",
"v. c #E8D267",
"b. c #F6D368",
"n. c #F7DA6D",
"m. c #F6DA75",
"M. c #F7DE7A",
"N. c #F6EA6F",
"B. c #FDEC6B",
"V. c #FFF261",
"C. c #FDE876",
"Z. c #FCEB7C",
"A. c #FEF074",
"S. c #FEF27C",
"D. c #DEDE96",
"F. c #EECF8A",
"G. c #F5DA8D",
"H. c #EFD597",
"J. c #F3DB95",
"K. c #EEE582",
"L. c #FCEE85",
"P. c #FCED8D",
"I. c #FFF481",
"U. c #FFF88B",
"Y. c #FBE897",
"T. c #F7E498",
"R. c #FFF897",
"E. c #FCF298",
"W. c #FFFB9B",
"Q. c #EDD7A7",
"!. c #F1D9A1",
"~. c #F0DCAB",
"^. c #EEDBBD",
"/. c #FEEFA1",
"(. c #F7F6A8",
"). c #FFF5AA",
"_. c #FFFFAC",
"`. c #F4FAB3",
"'. c #FFFFB8",
"]. c #F8EDCF",
"[. c #FDF3C3",
"{. c #F3E9DE",
"}. c #FCF3D1",
"|. c #F4EDEA",
" X c #F4EDF2",
".X c #FEF7F3",
"XX c #FEF9F6",
"oX c #FFFFFF",
/* pixels */
"oXoXoXoXoXoXoXoXoXoXoX}.P.g.1.:.1.j.S.).}.oXoXoXoXoXoXoXoXoXoXoX",
"oXoXoXoXoXoXoXoXoXZ.` ~ g c Q E ~ E W { ,.d.E.XXoXoXoXoXoXoXoXoX",
"oXoXoXoXoXoXoXY.` u u v ` 0 - u % j c ~ ~ h @.d./.oXoXoXoXoXoXoX",
"oXoXoXoXoXoXf.~ t ! z % % ^ Q u  .c j h Q ' ! h %.V.oXoXoXoXoXoX",
"oXoXoXoX.XS.R t ! g s ^ v f c $ ` r j j x t 8 ' c [ 3..XoXoXoXoX",
"oXoXoXoXB.T t r u v $ $ $ v ( } | [ ! j # h ^ a 9 c f >.oXoXoXoX",
"oXoXoXe.l 6 - x - O s v ] X.....O.2.k.p.| c # 9 z f ` h <.oXoXoX",
"oXoXT.~ > a 1 u * d ! ` ^ ` ' '  . .o.>.d.g.^ q r ! ^ c Q P.oXoX",
"oXoX^ @ 2 2 6 + a ! ! ! ^ ^ ^ ` _  . .....+.j.( 9 ^ ! ^ t  .XXoX",
"oXM.1 > < < < 2 d x v v ! ! ^ c s ` ` '  .....s.v x v ! ! u B.oX",
"oXc ; < < < < 2 s s z x x v ! s s Q ^ ^ ` ' ' ..u.d x x ! 1 ` oX",
"].< : , < > < a a s s s z c z d z s ^ ^ ^ ` ` ' o.I z n b z z [.",
"G.X 1 1 1 , > 2 2 t a s s s z z z z x ! ! ^ ^ ` ` -.t A V p t C.",
"8.> 2 t r 2 : < 2 2 2 2 a u z s z s s c ! ! ! ^ ^ ;.5 K A a 1 i.",
"U 5 a 1 1 , < < < < < 2 < z z z s z z s x v v ! ! ] M 7 1 t , ;.",
"G 5 d d d 1 < > < < < < s z z z z z z z s z c v ! ! G < 2 2 @ p.",
"L a b n b 1 6 < < < > 1 x z z z z z z z u s s z x v G , 4 < ; Z.",
"=.s ( K S t s a 2 < > z x x x x x x x x z t s s z n 4 M F 4 : P.",
"y.c l } S b t x s a t v = o X     . o + x x 2 a a S : M M 3 3 L.",
"J.x ` / ^ ^ u ! v x - o , 5 5 < < 5 < 5 X o s 2 t A < < 3 > r P.",
"{.z ` ' ` ` u ` ^ # g v s a t 2 < < > < < 5   , 2 N 2 2 2 : c ].",
"oXi Q ' ' ) ' r ' ^ ^ ! v x d s a 5 < < > < < < N a N a a : ^ oX",
"oXF.< +.{ @.} E j ' ` ^ ^ ! v x s s 6 2 < < > 1 b A K A s 1 m.oX",
"oXoX, #.w.#.$.o.~ h  .' ` ` ^ ! ! x z s a 2 < v ! b S Z < z oXoX",
"oXoXQ.; N.V.e.p.<.$.q '  .' ` ` ^ ! ! v s 1 ^ ^ ! v ! z : J.oXoX",
"oXoXoX6.: W.I.A.B.g.h.*.k E  . .' ` z j ~ ' ` ^ ^ ^ ^ @ P oXoXoX",
"oXoXoXoXm i _.R.U.I.I.w.} f.*.C @.l _ ` r ' ' ` ` ` : 4 oXoXoXoX",
"oXoXoXoXoXm t (._.W.E.r z.T k D #.p *.d s ~  . .' 1 p oXoXoXoXoX",
"oXoXoXoXoXoX7.t y.'.(.r w.v.s _.u S t.u w e a.) z *.oXoXoXoXoXoX",
"oXoXoXoXoXoXoX^.y u y.D.9.`.4.& x.q.K.l.U.w.z c ~.oXoXoXoXoXoXoX",
"oXoXoXoXoXoXoXoXoXQ.B s p &.y.n.b.r.Y t 2 u H.oXoXoXoXoXoXoXoXoX",
"oXoXoXoXoXoXoXoXoXoXoX X~.c.6.J H 5.0.!.|.oXoXoXoXoXoXoXoXoXoXoX"
};
